# xmcd
#
# Track frame offsets: 
#        150
#        14485
#        37982
#        56255
#        74865
#        91507
#        106395
#        130305
#        145457
#        167612
#        182757
#
# Disc length: 2849 seconds
#
# Revision: 3
# Processed by: cddbd v1.5.1PL0 Copyright (c) Steve Scherf et al.
# Submitted via: ExactAudioCopy v0.90b4
#
DISCID=950b1f0b
DTITLE=Roffe Wikström - Starka Band
DYEAR=1997
DGENRE=Blues
TTITLE0=Starka Band
TTITLE1=Leva Som En Luffare
TTITLE2=Inte En Spänn På  Fickan
TTITLE3=Kärlek  Är En Lek
TTITLE4=Jag Kan Inte Lämna Dig
TTITLE5=Du Är Så  Jävla Vacker
TTITLE6=Herdinna, Herdinna
TTITLE7=En Solig Dag
TTITLE8=Jag Är Som En Främling
TTITLE9=Redan Träffat Någon Annan
TTITLE10=Jag Har Glömt Min Telefonbok
EXTD=MNWCD317
EXTT0=
EXTT1=
EXTT2=
EXTT3=
EXTT4=
EXTT5=
EXTT6=
EXTT7=
EXTT8=
EXTT9=
EXTT10=
PLAYORDER=
